<svg xmlns="http://www.w3.org/2000/svg" viewBox="0 0 186.82 100.89"><g id="a4af6ffe-cb63-43ee-923a-420fc6969768" data-name="Calque 2"><g id="bb77c5e3-3483-4dc2-9a2c-66da6cdef05a" data-name="Calque 1"><path d="M.55,57.52a4.82,4.82,0,0,1-.12-.84L.25,54.91C.18,54.22.1,53.37,0,52.34l1.06,2.73Zm29.8-11.77a2,2,0,0,0-1-1.19,3.18,3.18,0,0,0-1.56-.25,9.55,9.55,0,0,0-1.71.3,17.08,17.08,0,0,0-1.94.68l2.92-1.82-2.62.32,3-1.95,3.82-1.41-4.37.31q3.62-.95,6.21-1.68l5.19-1.43,4.3-1.16a13.94,13.94,0,0,1,1.71-.41,5.91,5.91,0,0,1-.65.39l-1.24.68q-.68.39-1.68.93l17-3.73-9.41,5.46,4.58-.36-3.83,1.63,6.9.23c-2.19.58-4,1.1-5.36,1.57a21.63,21.63,0,0,0-3.7,1.61A25.54,25.54,0,0,0,42.38,48l1.15-3.55A10.5,10.5,0,0,0,41.24,46a8.84,8.84,0,0,0-1.73,2.29Q38.36,50.53,37,53.43V51.16q-2,2.09-3.12,3.2c-.77.74-1.42,1.36-2,1.84s-.94.87-1.41,1.32-1,1.06-1.71,1.82H30.9q-6.28,2.82-9.41,4.14l-1.06.45a2.9,2.9,0,0,0,.66-.48l1.18-1c.45-.37,1-.84,1.64-1.41a30,30,0,0,1-9.54,3.34q-5,.84-8.18-1.71C4.08,61,3.3,57.6,3.88,52.47q-1.36,3-2.72,6.05a54,54,0,0,1,3-10.32q2.67-6.09,4.38-9.41a37.32,37.32,0,0,0-3.05,4.32c-.85,1.42-1.77,3.1-2.74,5a8.53,8.53,0,0,1,.17-.93c.09-.35.22-.85.41-1.5s.45-1.47.8-2.45.8-2.19,1.34-3.62a39.54,39.54,0,0,1,3.07-6.5,34.25,34.25,0,0,1,3.92-6.27c1.78-2.21,3.21-3.93,4.3-5.14s2.11-2.26,3-3.14c-.24.91-.47,1.81-.7,2.69-.14.45-.26.89-.36,1.31q1.66-3.13,3.17-5.41a38.37,38.37,0,0,1,3.58-4.54,4.5,4.5,0,0,1-.66,0,1,1,0,0,1-.3.05,43.24,43.24,0,0,1,5.29-3.91,16.28,16.28,0,0,1,4.88-2l1.88-.32q.84-.13,1.44-.18c.4,0,.75,0,1,0a3.94,3.94,0,0,1,.68,0l.4.09.25.09a13.57,13.57,0,0,0-2.81.59l.85.09a16.06,16.06,0,0,1,4.78,1.32,23.47,23.47,0,0,1,4.23,2.68c-.67-1-1.33-1.94-2-2.91a13.65,13.65,0,0,1,5.43,5.41,19.48,19.48,0,0,1,2.37,7.1,12.51,12.51,0,0,0-1.86-2.5,23.39,23.39,0,0,0-2.77-2.37,13.79,13.79,0,0,1,1.38,6.21A13.34,13.34,0,0,1,49,28.51,10.45,10.45,0,0,0,48.22,25a14.51,14.51,0,0,0-3.33-4.5,3.24,3.24,0,0,1,.53.75c.15.29.35.7.58,1.25a7.77,7.77,0,0,1,.33,1.59,11.36,11.36,0,0,1,0,1.77Q44.44,20.66,41,20.22a9.91,9.91,0,0,0-6.67,1.61,13.17,13.17,0,0,0-4.56,4.37c.41-1.25.83-2.49,1.26-3.73L32,19.74q-1.71,2.32-4.73,6.66a98.4,98.4,0,0,0-5.46,8.75q-2.44,4.41-2.49,7a2.31,2.31,0,0,1-.36-1.5c0-.73,0-1.47.1-2.23,0-.39.07-.76.11-1.09-.31.54-.84,1.71-1.62,3.5s-1.57,3.75-2.41,5.89-1.49,4-2,5.61q-1.32,4.32,3,2A41,41,0,0,0,21.34,51c.74-.54,1.31-.94,1.71-1.18-.54.55-1.07,1.11-1.61,1.68l-1.81,1.82c1-.33,2.28-.88,3.92-1.63A25.8,25.8,0,0,0,28.08,49,5,5,0,0,0,30.35,45.75ZM3.12,57.88,1.41,60.11,3.47,60Zm11.07-4.32a2.75,2.75,0,0,0,.56-.29L16,52.5l1.51-1,1.77-1.11-2.47-.73Zm5.24-35.5-.61-.73-2.66,2.59Zm1.2.13,2-4.63-2.17.95ZM41.42,47.38a13.83,13.83,0,0,0-.13,2.21c0,.8.06,1.55.13,2.25l-1.76.59A14.86,14.86,0,0,1,41.12,48Zm9.81-27.69.86,1.6L51,22.92c0-.66-.06-1.26-.1-1.77a9.67,9.67,0,0,0-.15-1c-.07-.35-.17-.75-.3-1.21Z"/><path d="M85.51,11.42q1.6,4.41.35,11.55.6-6.82-1.81-10.5t-8.56-.78c3.46-1.3,5.88-1,7.28.8A12.29,12.29,0,0,1,85,19.67a35.77,35.77,0,0,1-.41,7.48,116.93,116.93,0,0,1-4.12,16.28c-.44,1.39-.86,2.75-1.26,4.09L82.44,47l-4.28,5.09L83,52.2,80.2,53c-.76.23-1.44.45-2.06.66a12.77,12.77,0,0,0-1.24.46v.09c.14.06.39.16.76.29l1.21.46,1.61.61L76.4,56,72.32,71.34l-1-4L67.44,78.11l1.21-7.54L62.41,83.89,67,66.43l-2.17,2.68L67.79,57,52,58.7q-.81,1.77-1.71,4l-1.51-2.27L47,67.11l-.61-3.59-6.64,9.32,3-9.09-1,.77,2.32-5.14L35.73,60.7l3.17-1.82c-1.57.09-2.87.18-3.9.25l-2.76.21a7.2,7.2,0,0,0-1.44.18q-.11,0,.81-.3l2.31-.77,2.85-1,3.39-1.18-2.77-1.13,8.71-.91c.2-.52.38-1,.53-1.32l.43-1.07.32-.86c.09-.23.11-.33.08-.3s0-.05.1-.25.23-.45.38-.77l.45-1,.53-1.18c-.54.76-1,1.39-1.31,1.91l-.9,1.38-.46.71s0,0,0,0l0-.18a4.89,4.89,0,0,0,.13-.48,8.3,8.3,0,0,1,.25-.82l.43-1.2c.17-.47.38-1,.65-1.66a39,39,0,0,1,2-4.11c.78-1.41,1.78-3.13,3-5.16-.2.72-.36,1.32-.5,1.79s-.28.92-.43,1.34a6.49,6.49,0,0,1-.37.91A8.52,8.52,0,0,0,52,41c.45-.73,1-1.66,1.76-2.8L56,34.77q1.1-1.76,2.66-4.21c-.47.36-.85.67-1.15.91l-.86.68a2.5,2.5,0,0,1-.55.37,7.17,7.17,0,0,1,.78-1.19c.55-.78,1.25-1.78,2.11-3l2.59-3.62c.87-1.21,1.91-2.64,3.12-4.27q-1.41,1.14-2.31,2l-1.64,1.5a5.8,5.8,0,0,0-.88,1c0,.12,0,0,.25-.32q1.06-2.28,7.15-9.82A50,50,0,0,1,77.1,6.47l-4,4.5A25.39,25.39,0,0,1,76.5,8.85a11.08,11.08,0,0,1,3.2-1,5.15,5.15,0,0,1,3.22.5A6.08,6.08,0,0,1,85.51,11.42ZM45.4,53.47l-10-.77,4.33,1.14Zm-.1-.63L43.94,48.7l-.86,2.36Zm.75,12.5L45,67.61l.56,1.64Zm7-13.18,2.26-3.87c-.33.46-.63.84-.88,1.16l-.75.93-.61.73c-.15.18-.22.26-.22.23s.33-.59.8-1.5,1-2,1.64-3.14,1.4-2.68,2.34-4.5l-4,6.27,0-1.41-3.12,5.78Zm2.31-.91,6.7-2.46L59,50.7l9.91-1.59,1.16-4.18L68.7,46.79l.85-2.95c.14-.55.32-1.4.56-2.55s.48-2.36.75-3.61.61-2.8,1-4.62l1.06,1.41c.06-1,.11-1.86.15-2.59a16.5,16.5,0,0,0,0-2.12,6.15,6.15,0,0,0-.38-1.68c-.18-.44-.46-.61-.83-.52a6.87,6.87,0,0,0-1.79.91,17.71,17.71,0,0,0-1.93,1.64L71,29.06a7,7,0,0,0-.62.43c-.22.17-.51.42-.86.75s-.8.78-1.33,1.32a18.65,18.65,0,0,0-2.14,3.05q-1.29,2.13-2.62,4.59t-2.29,4.27c-.64,1.21-1,1.91-1.06,2.09s-.05,0,0-.22.24-.59.41-1,.34-.88.52-1.34.4-1,.63-1.68a26.46,26.46,0,0,0-1.93,2.43q-1,1.39-2.55,4C56.62,48.81,56,50,55.36,51.25ZM71.17,70.16l-.66,4.36,1.61,2.41ZM77.31,7.69l2.76-1.22-.3-2.32Zm5.48,34-1.51,3.82L86.72,39Z"/><path d="M122.9,30.47l9.62-16.82-1.36,5.23c1.84-2.64,3.43-4.91,4.75-6.82l4-5.69c1.31-1.87,2.38-3.43,3.2-4.66s1.2-1.79,1.13-1.7a32.52,32.52,0,0,0-1.28,3.16c-.69,1.83-1.45,3.92-2.29,6.25s-1.9,5.29-3.17,8.87l5.23-3-5.48,8.09,2-.27-1.11,2.5a.59.59,0,0,0,.25-.09c.1-.06,0,.26-.42,1s-.9,1.58-1.54,2.64-1.29,2.13-2,3.21L132,36.24l3.83-3.32L120,58.84c.41-1.52.73-2.77,1-3.77s.49-1.91.73-2.73a9.56,9.56,0,0,1,.5-1.5s0,0,0,0c-.2.34-.85,1.31-1.94,2.93s-2.36,3.43-3.82,5.41a55.72,55.72,0,0,1-4.18,5.1c-1.33,1.41-2.32,2.07-3,2a2.45,2.45,0,0,1-1.38-1.86,15.38,15.38,0,0,1-.5-3.43c-.05-1.26,0-2.84.07-4.75l-2.77,2.5a59.73,59.73,0,0,1-.32-7q0-4.78.4-10a41.77,41.77,0,0,1,1.48-8.59l-3,3.73c.6-1.58,1.09-2.92,1.46-4s.69-2.17,1-3.19a7.41,7.41,0,0,0,.37-2.29c0-.37-.23-.42-.6-.16a8.87,8.87,0,0,0-1.36,1.29c-.54.61-1.07,1.25-1.61,1.94S101.4,32,100.66,33l1.56-4.77L96.08,40l4.13-3.82L91.5,56.66l1-7.37L82.49,66l2.92-10.59q-1.92,2.77-3.1,4.59l-2.09,3.21a9.07,9.07,0,0,0-.9,1.52l6.79-19.91-3.42,2.91L91.2,28.33l-1,4.82c1.17-2.57,2.2-4.76,3.07-6.54S95.06,23.1,96,21.47a27.14,27.14,0,0,1,2.29-3.68A27.42,27.42,0,0,1,101.87,14l-3.33,1.27a40.64,40.64,0,0,1,4.56-3.71,14.54,14.54,0,0,1,4.25-2,20.59,20.59,0,0,1,3.8-.55,12.77,12.77,0,0,1,3.15.32L111,10a7.55,7.55,0,0,1,1.73.27,5.31,5.31,0,0,1,1.64.86,2.86,2.86,0,0,1,.9,1.78,13.67,13.67,0,0,1,.26,2.7c0,1-.06,2.14-.16,3.57l-.8-1.77-1.16,11.73h0l2.77-3.69a44.23,44.23,0,0,0-1.91,10.82,65.13,65.13,0,0,1-1.11,8.37q0,.09.18-.27c.15-.25.34-.58.57-1l.73-1.32c.26-.46.53-1,.84-1.59-.27,1.36-.5,2.53-.68,3.5s-.33,1.94-.43,2.91a13.54,13.54,0,0,0-.08,2.38c.05.62.25.92.58.89.61-.3,1.59-1.92,3-4.86s2.79-6.13,4.23-9.55q2-4.73,3.22-7.32ZM90.54,57.79l-.2-2.5c-.23.52-.44.94-.6,1.28s-.31.63-.43.9A1.59,1.59,0,0,1,89,58ZM93.11,22.1l-1.76,1.19L91.2,27ZM116.36,64,119,62.84l-.1-3.64Z"/><path d="M129.65,57.52a3.59,3.59,0,0,1-.13-.84c-.05-.5-.11-1.09-.17-1.77s-.16-1.54-.26-2.57l1.06,2.73Zm29.79-11.77a2,2,0,0,0-1-1.19,3.14,3.14,0,0,0-1.56-.25,9.55,9.55,0,0,0-1.71.3,17.79,17.79,0,0,0-1.94.68l2.92-1.82-2.62.32,3-1.95,3.83-1.41-4.38.31q3.63-.95,6.22-1.68l5.18-1.43,4.3-1.16a13.94,13.94,0,0,1,1.71-.41,4.32,4.32,0,0,1-.65.39c-.37.2-.78.42-1.23.68l-1.69.93,17-3.73-9.41,5.46,4.58-.36-3.83,1.63,6.9.23q-3.27.87-5.36,1.57a22,22,0,0,0-3.7,1.61A25.54,25.54,0,0,0,171.47,48l1.16-3.55A10,10,0,0,0,170.34,46a8.86,8.86,0,0,0-1.74,2.29q-1.15,2.24-2.51,5.14V51.16q-2,2.09-3.12,3.2c-.78.74-1.43,1.36-2,1.84s-.94.87-1.41,1.32-1,1.06-1.71,1.82H160q-6.3,2.82-9.42,4.14l-1.05.45a2.72,2.72,0,0,0,.65-.48l1.18-1c.46-.37,1-.84,1.64-1.41a30,30,0,0,1-9.54,3.34c-3.34.56-6.06,0-8.18-1.71S132.4,57.6,133,52.47c-.91,2-1.81,4-2.72,6.05a54.78,54.78,0,0,1,3-10.32q2.67-6.09,4.38-9.41a38.58,38.58,0,0,0-3.05,4.32q-1.28,2.13-2.74,5a8.79,8.79,0,0,1,.18-.93c.08-.35.22-.85.4-1.5s.45-1.47.81-2.45.79-2.19,1.33-3.62a40.37,40.37,0,0,1,3.07-6.5,34.34,34.34,0,0,1,3.93-6.27c1.77-2.21,3.21-3.93,4.3-5.14s2.1-2.26,3-3.14c-.23.91-.47,1.81-.7,2.69-.14.45-.25.89-.35,1.31A62,62,0,0,1,151,17.19a38.25,38.25,0,0,1,3.57-4.54,4.45,4.45,0,0,1-.65,0,1.06,1.06,0,0,1-.31.05,44,44,0,0,1,5.29-3.91,16.28,16.28,0,0,1,4.88-2l1.89-.32c.55-.09,1-.15,1.43-.18s.75,0,1,0a3.86,3.86,0,0,1,.68,0l.41.09.25.09a13.54,13.54,0,0,0-2.82.59l.86.09a16.23,16.23,0,0,1,4.78,1.32,23.08,23.08,0,0,1,4.22,2.68c-.67-1-1.32-1.94-2-2.91A13.74,13.74,0,0,1,180,13.69a19.64,19.64,0,0,1,2.36,7.1,12.14,12.14,0,0,0-1.86-2.5,22.61,22.61,0,0,0-2.77-2.37,13.91,13.91,0,0,1,1.39,6.21,13.45,13.45,0,0,1-1.09,6.38,10.22,10.22,0,0,0-.75-3.54,14.64,14.64,0,0,0-3.32-4.5,3.58,3.58,0,0,1,.53.75c.15.29.34.7.57,1.25a7.77,7.77,0,0,1,.33,1.59,12.62,12.62,0,0,1,0,1.77q-1.92-5.17-5.34-5.61a9.93,9.93,0,0,0-6.67,1.61,13,13,0,0,0-4.55,4.37c.4-1.25.82-2.49,1.26-3.73l.9-2.73c-1.14,1.55-2.71,3.77-4.73,6.66s-3.83,5.81-5.46,8.75-2.46,5.26-2.49,7a2.38,2.38,0,0,1-.35-1.5c0-.73,0-1.47.1-2.23,0-.39.07-.76.1-1.09-.3.54-.84,1.71-1.61,3.5s-1.58,3.75-2.42,5.89-1.49,4-2,5.61q-1.3,4.32,3,2A40.35,40.35,0,0,0,150.43,51c.74-.54,1.31-.94,1.71-1.18l-1.61,1.68-1.81,1.82c1-.33,2.28-.88,3.93-1.63A26.55,26.55,0,0,0,157.18,49,4.93,4.93,0,0,0,159.44,45.75ZM132.21,57.88l-1.71,2.23,2.07-.13Zm11.08-4.32a3.21,3.21,0,0,0,.55-.29l1.26-.77,1.51-1,1.76-1.11-2.47-.73Zm5.23-35.5-.6-.73-2.67,2.59Zm1.21.13,2-4.63-2.16.95Zm20.78,29.19a12.81,12.81,0,0,0-.12,2.21q0,1.2.12,2.25l-1.76.59A15.16,15.16,0,0,1,170.21,48Zm9.82-27.69.85,1.6-1.1,1.63c0-.66-.07-1.26-.1-1.77q-.06-.49-.15-1c-.07-.35-.17-.75-.31-1.21Z"/><path d="M42.66,100.58l-3.37-3.89H34.46v3.89H33.22V90.41h6.83c2.27,0,3.89,1.14,3.89,3.14,0,1.77-1.28,2.88-3.15,3.1l3.47,3.93Zm-2.7-5c1.64,0,2.73-.63,2.73-2s-1.09-2-2.73-2H34.44v4Z"/><path d="M59.4,99.45v1.13H49.57V90.41h9.69v1.14H50.79v3.29H58V96H50.79v3.47Z"/><path d="M74,97.81l1.16.58a5.81,5.81,0,0,1-5.21,2.5c-3.8,0-6.12-2.09-6.12-5.39s2.32-5.39,6.16-5.39a5.82,5.82,0,0,1,5.17,2.5L74,93.19a4.37,4.37,0,0,0-4-2c-3,0-4.89,1.45-4.89,4.26s1.94,4.26,4.89,4.26A4.34,4.34,0,0,0,74,97.81Z"/><path d="M79.47,95.5c0-3.31,2.33-5.39,6.19-5.39s6.19,2.08,6.19,5.39-2.33,5.39-6.19,5.39S79.47,98.81,79.47,95.5Zm11.13,0c0-2.73-1.95-4.26-4.94-4.26s-4.94,1.53-4.94,4.26,2,4.26,4.94,4.26S90.6,98.23,90.6,95.5Z"/><path d="M106.82,100.58l-3.37-3.89H98.61v3.89H97.37V90.41h6.83c2.27,0,3.89,1.14,3.89,3.14,0,1.77-1.27,2.88-3.15,3.1l3.47,3.93Zm-2.71-5c1.65,0,2.74-.63,2.74-2s-1.09-2-2.74-2H98.59v4Z"/><path d="M124.76,95.5c0,3.12-2.38,5.08-6.1,5.08h-4.94V90.41h4.94C122.38,90.41,124.76,92.38,124.76,95.5Zm-1.25,0c0-2.6-2.05-4-4.94-4h-3.63v7.9h3.63C121.46,99.45,123.51,98.1,123.51,95.5Z"/><path d="M140.42,97.63c0,1.88-1.9,3.26-5.21,3.26a9,9,0,0,1-5.94-2.09l.85-.92a7.37,7.37,0,0,0,5.16,1.88c2.46,0,3.89-.77,3.89-2s-1.49-1.54-4.24-1.77-5.31-.83-5.31-2.83,2.41-3,5.12-3a7.83,7.83,0,0,1,5.2,1.81l-.95.82a6,6,0,0,0-4.19-1.5c-1.81,0-3.94.5-3.94,1.83s1.92,1.53,4.32,1.72C138.27,95,140.42,95.63,140.42,97.63Z"/></g></g></svg>